<?xml version="1.0" encoding="UTF-8" standalone="no"?>
<!DOCTYPE svg PUBLIC "-//W3C//DTD SVG 1.1//EN"
 "http://www.w3.org/Graphics/SVG/1.1/DTD/svg11.dtd">
<!-- Generated by graphviz version 12.0.0 (20240704.0754)
 -->
<!-- Title: pastafarianism Pages: 1 -->
<svg width="721pt" height="188pt"
 viewBox="0.00 0.00 720.80 188.00" xmlns="http://www.w3.org/2000/svg" xmlns:xlink="http://www.w3.org/1999/xlink">
<g id="graph0" class="graph" transform="scale(1 1) rotate(0) translate(4 184)">
<title>pastafarianism</title>
<polygon fill="white" stroke="none" points="-4,4 -4,-184 716.8,-184 716.8,4 -4,4"/>
<!-- Root -->
<g id="node1" class="node">
<title>Root</title>
<polygon fill="cyan" stroke="black" points="405.83,-154.54 405.83,-169.46 388.24,-180 363.36,-180 345.77,-169.46 345.77,-154.54 363.36,-144 388.24,-144 405.83,-154.54"/>
<text text-anchor="middle" x="375.8" y="-160.2" font-family="Times,serif" font-size="9.00">Ⓜ Root</text>
</g>
<!-- Find and Return Food -->
<g id="node2" class="node">
<title>Find and Return Food</title>
<polygon fill="orange" stroke="black" points="311.8,-108 205.8,-108 205.8,-72 311.8,-72 311.8,-108"/>
<text text-anchor="middle" x="258.8" y="-88.2" font-family="Times,serif" font-size="9.00">Ⓜ Find and Return Food</text>
</g>
<!-- Root&#45;&gt;Find and Return Food -->
<g id="edge1" class="edge">
<title>Root&#45;&gt;Find and Return Food</title>
<path fill="none" stroke="black" d="M355.15,-148.65C339.29,-139.15 316.91,-125.77 297.72,-114.28"/>
<polygon fill="black" stroke="black" points="299.7,-111.39 289.32,-109.26 296.1,-117.4 299.7,-111.39"/>
</g>
<!-- Explore and Eat -->
<g id="node8" class="node">
<title>Explore and Eat</title>
<polygon fill="orange" stroke="black" points="577.55,-108 494.05,-108 494.05,-72 577.55,-72 577.55,-108"/>
<text text-anchor="middle" x="535.8" y="-88.2" font-family="Times,serif" font-size="9.00">Ⓜ Explore and Eat</text>
</g>
<!-- Root&#45;&gt;Explore and Eat -->
<g id="edge7" class="edge">
<title>Root&#45;&gt;Explore and Eat</title>
<path fill="none" stroke="black" d="M399.75,-150.52C422.35,-140.64 456.93,-125.51 485.57,-112.98"/>
<polygon fill="black" stroke="black" points="486.67,-116.31 494.43,-109.1 483.87,-109.9 486.67,-116.31"/>
</g>
<!-- Food Available -->
<g id="node3" class="node">
<title>Food Available</title>
<ellipse fill="gray" stroke="black" cx="40.8" cy="-18" rx="40.8" ry="18"/>
<text text-anchor="middle" x="40.8" y="-14.7" font-family="Times,serif" font-size="9.00">Food Available</text>
</g>
<!-- Find and Return Food&#45;&gt;Food Available -->
<g id="edge2" class="edge">
<title>Find and Return Food&#45;&gt;Food Available</title>
<path fill="none" stroke="black" d="M205.39,-72.7C172.07,-62.42 128.34,-48.73 89.8,-36 87.56,-35.26 85.27,-34.5 82.96,-33.72"/>
<polygon fill="black" stroke="black" points="84.15,-30.42 73.55,-30.51 81.89,-37.05 84.15,-30.42"/>
</g>
<!-- Go To Patch -->
<g id="node4" class="node">
<title>Go To Patch</title>
<ellipse fill="gray" stroke="black" cx="134.8" cy="-18" rx="35.55" ry="18"/>
<text text-anchor="middle" x="134.8" y="-14.7" font-family="Times,serif" font-size="9.00">Go To Patch</text>
</g>
<!-- Find and Return Food&#45;&gt;Go To Patch -->
<g id="edge3" class="edge">
<title>Find and Return Food&#45;&gt;Go To Patch</title>
<path fill="none" stroke="black" d="M227.83,-71.52C209.55,-61.2 186.42,-48.14 167.8,-37.63"/>
<polygon fill="black" stroke="black" points="169.73,-34.7 159.3,-32.83 166.28,-40.79 169.73,-34.7"/>
</g>
<!-- Pick Up -->
<g id="node5" class="node">
<title>Pick Up</title>
<ellipse fill="gray" stroke="black" cx="215.8" cy="-18" rx="27" ry="18"/>
<text text-anchor="middle" x="215.8" y="-14.7" font-family="Times,serif" font-size="9.00">Pick Up</text>
</g>
<!-- Find and Return Food&#45;&gt;Pick Up -->
<g id="edge4" class="edge">
<title>Find and Return Food&#45;&gt;Pick Up</title>
<path fill="none" stroke="black" d="M248.17,-71.7C243.18,-63.58 237.14,-53.74 231.63,-44.76"/>
<polygon fill="black" stroke="black" points="234.73,-43.12 226.51,-36.43 228.76,-46.79 234.73,-43.12"/>
</g>
<!-- Return To Den -->
<g id="node6" class="node">
<title>Return To Den</title>
<ellipse fill="gray" stroke="black" cx="300.8" cy="-18" rx="40.36" ry="18"/>
<text text-anchor="middle" x="300.8" y="-14.7" font-family="Times,serif" font-size="9.00">Return To Den</text>
</g>
<!-- Find and Return Food&#45;&gt;Return To Den -->
<g id="edge5" class="edge">
<title>Find and Return Food&#45;&gt;Return To Den</title>
<path fill="none" stroke="black" d="M269.18,-71.7C273.93,-63.78 279.66,-54.23 284.93,-45.44"/>
<polygon fill="black" stroke="black" points="287.9,-47.3 290.05,-36.92 281.9,-43.69 287.9,-47.3"/>
</g>
<!-- Drop Off -->
<g id="node7" class="node">
<title>Drop Off</title>
<ellipse fill="gray" stroke="black" cx="387.8" cy="-18" rx="29" ry="18"/>
<text text-anchor="middle" x="387.8" y="-14.7" font-family="Times,serif" font-size="9.00">Drop Off</text>
</g>
<!-- Find and Return Food&#45;&gt;Drop Off -->
<g id="edge6" class="edge">
<title>Find and Return Food&#45;&gt;Drop Off</title>
<path fill="none" stroke="black" d="M291.02,-71.52C311.01,-60.67 336.57,-46.8 356.4,-36.04"/>
<polygon fill="black" stroke="black" points="358.03,-39.14 365.15,-31.29 354.69,-32.99 358.03,-39.14"/>
</g>
<!-- Hungry -->
<g id="node9" class="node">
<title>Hungry</title>
<ellipse fill="gray" stroke="black" cx="461.8" cy="-18" rx="27" ry="18"/>
<text text-anchor="middle" x="461.8" y="-14.7" font-family="Times,serif" font-size="9.00">Hungry</text>
</g>
<!-- Explore and Eat&#45;&gt;Hungry -->
<g id="edge8" class="edge">
<title>Explore and Eat&#45;&gt;Hungry</title>
<path fill="none" stroke="black" d="M517.51,-71.7C507.74,-62.46 495.62,-50.99 485.18,-41.12"/>
<polygon fill="black" stroke="black" points="487.66,-38.65 477.99,-34.32 482.85,-43.73 487.66,-38.65"/>
</g>
<!-- Safe Area -->
<g id="node10" class="node">
<title>Safe Area</title>
<ellipse fill="gray" stroke="black" cx="535.8" cy="-18" rx="29.43" ry="18"/>
<text text-anchor="middle" x="535.8" y="-14.7" font-family="Times,serif" font-size="9.00">Safe Area</text>
</g>
<!-- Explore and Eat&#45;&gt;Safe Area -->
<g id="edge9" class="edge">
<title>Explore and Eat&#45;&gt;Safe Area</title>
<path fill="none" stroke="black" d="M535.8,-71.7C535.8,-64.41 535.8,-55.73 535.8,-47.54"/>
<polygon fill="black" stroke="black" points="539.3,-47.62 535.8,-37.62 532.3,-47.62 539.3,-47.62"/>
</g>
<!-- Explore -->
<g id="node11" class="node">
<title>Explore</title>
<ellipse fill="gray" stroke="black" cx="609.8" cy="-18" rx="27" ry="18"/>
<text text-anchor="middle" x="609.8" y="-14.7" font-family="Times,serif" font-size="9.00">Explore</text>
</g>
<!-- Explore and Eat&#45;&gt;Explore -->
<g id="edge10" class="edge">
<title>Explore and Eat&#45;&gt;Explore</title>
<path fill="none" stroke="black" d="M554.09,-71.7C563.86,-62.46 575.98,-50.99 586.42,-41.12"/>
<polygon fill="black" stroke="black" points="588.75,-43.73 593.6,-34.32 583.93,-38.65 588.75,-43.73"/>
</g>
<!-- Consume -->
<g id="node12" class="node">
<title>Consume</title>
<ellipse fill="gray" stroke="black" cx="683.8" cy="-18" rx="29" ry="18"/>
<text text-anchor="middle" x="683.8" y="-14.7" font-family="Times,serif" font-size="9.00">Consume</text>
</g>
<!-- Explore and Eat&#45;&gt;Consume -->
<g id="edge11" class="edge">
<title>Explore and Eat&#45;&gt;Consume</title>
<path fill="none" stroke="black" d="M572.76,-71.52C596.71,-60.19 627.63,-45.57 650.76,-34.63"/>
<polygon fill="black" stroke="black" points="652.19,-37.82 659.73,-30.38 649.2,-31.49 652.19,-37.82"/>
</g>
</g>
</svg>
